<svg xmlns="http://www.w3.org/2000/svg" xmlns:xlink="http://www.w3.org/1999/xlink" width="1160px" height="510px" viewBox="0 0 1160 510" preserveAspectRatio="xMidYMid meet"  ><defs id="svgEditorDefs"><polygon id="svgEditorShapeDefs" fill="khaki" stroke="black" style="vector-effect: non-scaling-stroke; stroke-width: 1px;"/></defs><rect id="svgEditorBackground" x="0" y="0" width="1160" height="510" style="fill: none; stroke: none;"/><path d="M15.774112643891245,-2.4425099807734085l-3.7249999999999996,-3.7249999999999996c-0.625,-0.6250000000000009,-1.875,0.625,-1.25,1.25l2.5,2.5l-2.5,2.5c-0.625,0.6250000000000002,0.625,1.8750000000000007,1.25,1.25l3.7249999999999996,-3.725ZM12.049112643891245,-2.4425099807734085l-3.7250000000000014,-3.7249999999999996c-0.625,-0.6250000000000009,-1.875,0.625,-1.25,1.25l2.5,2.5l-2.5,2.5c-0.625,0.6250000000000002,0.625,1.8750000000000007,1.25,1.25l3.7249999999999996,-3.725Z" stroke="black" id="e221_shape" style="vector-effect: non-scaling-stroke; stroke-width: 1px;" fill="gold" transform="matrix(13.2202 0.135432 -0.135432 13.2202 528.392 191.905)"/><circle id="e340_circle" cx="635" cy="160" stroke="black" style="stroke-width: 1px;" r="96.621" fill="gold" /><path d="M14.854649805246368,-2.466651655755152l-3.7249999999999996,-3.7249999999999996c-0.6250000000000019,-0.625000000000001,-1.875,0.6250000000000001,-1.25,1.25l2.5,2.5l-2.5,2.5c-0.6250000000000001,0.6250000000000004,0.6250000000000019,1.8750000000000004,1.25,1.25l3.7249999999999996,-3.725ZM11.12964980524637,-2.466651655755152l-3.7250000000000005,-3.7249999999999996c-0.6250000000000001,-0.625000000000001,-1.8749999999999991,0.6250000000000001,-1.2499999999999991,1.25l2.5,2.5l-2.5,2.5c-0.6250000000000001,0.6250000000000004,0.6250000000000001,1.8750000000000004,1.25,1.25l3.7249999999999996,-3.725Z" stroke="black" id="e464_shape" style="vector-effect: non-scaling-stroke; stroke-width: 1px;" fill="white" transform="matrix(13.2202 0.135432 -0.135432 13.2202 528.392 191.905)"/><path d="M7.947913471954017,-2.3538160826982253l-3.7249999999999996,-3.7249999999999996c-0.6250000000000019,-0.625000000000001,-1.875,0.6250000000000001,-1.25,1.25l2.5,2.5l-2.5,2.5c-0.6250000000000001,0.6250000000000004,0.6250000000000019,1.8750000000000004,1.25,1.25l3.7249999999999996,-3.725ZM4.222913471954019,-2.3538160826982253l-3.7250000000000005,-3.7249999999999996c-0.6250000000000001,-0.625000000000001,-1.8749999999999991,0.6250000000000001,-1.2499999999999991,1.25l2.5,2.5l-2.5,2.5c-0.6250000000000001,0.6250000000000004,0.6250000000000001,1.8750000000000004,1.25,1.25l3.7249999999999996,-3.725Z" stroke="black" id="e925_shape" style="vector-effect: non-scaling-stroke; stroke-width: 1px;" fill="white" transform="matrix(7.32515 0.0750412 -0.0750412 7.32515 562.57 176.551)"/></svg>